<svg width="800" height="600" xmlns="http://www.w3.org/2000/svg">
 <g>
  <title>Layer 1</title>
  <g stroke="null" opacity="0.06" id="svg_1">
   <!--! Font Awesome Pro 6.1.1 by @fontawesome - https://fontawesome.com License - https://fontawesome.com/license (Commercial License) Copyright 2022 Fonticons, Inc. -->
   <path stroke="null" fill="#000000" d="m746.92257,30.42002l-29.59616,103.58888c-1.13298,3.93074 -5.22557,6.19669 -9.15631,5.08684c-3.93074,-1.13298 -6.19669,-5.22557 -5.08684,-9.15631l29.59616,-103.58425c1.13298,-3.92935 5.22557,-6.20456 9.15631,-5.08175c3.93074,1.12257 6.19669,5.21818 5.08684,9.1466l0,0zm24.00064,18.63865l25.89664,25.89664c2.89025,2.89025 2.89025,7.56089 0,10.45114l-25.89664,25.89664c-2.89025,2.89025 -7.56089,2.89025 -10.45114,0c-2.89025,-2.89025 -2.89025,-7.56089 0,-10.45114l20.64795,-20.67107l-20.64795,-20.67107c-2.89025,-2.89025 -2.89025,-7.56089 0,-10.45114c2.89025,-2.89025 7.56089,-2.89025 10.45114,0l0,0l0,0zm-81.38945,10.45114l-20.65951,20.67107l20.65951,20.67107c2.89025,2.89025 2.89025,7.56089 0,10.45114c-2.89025,2.89025 -7.56089,2.89025 -10.45114,0l-25.90311,-25.89664c-2.88933,-2.89025 -2.88933,-7.56089 0,-10.45114l25.90311,-25.89664c2.89025,-2.89025 7.56089,-2.89025 10.45114,0c2.89025,2.89025 2.89025,7.56089 0,10.45114l0,0l0,0z" id="svg_2"/>
  </g>
 </g>

</svg>