<svg width="580" height="400" xmlns="http://www.w3.org/2000/svg">
 <!-- Created with Method Draw - http://github.com/duopixel/Method-Draw/ -->

 <g>
  <title>background</title>
  <rect fill="#fff" id="canvas_background" height="402" width="582" y="-1" x="-1"/>
  <g display="none" overflow="visible" y="0" x="0" height="100%" width="100%" id="canvasGrid">
   <rect fill="url(#gridpattern)" stroke-width="0" y="0" x="0" height="100%" width="100%"/>
  </g>
 </g>
 <g>
  <title>Layer 1</title>
  <!--! Font Awesome Pro 6.1.1 by @fontawesome - https://fontawesome.com License - https://fontawesome.com/license (Commercial License) Copyright 2022 Fonticons, Inc. -->
  <path opacity="0.09" id="svg_4" d="m509.229984,-12.902017l0,67.063693l67.063693,0l0,-67.063693l-67.063693,0zm36.495822,52.303693c0,6.526734 -3.832211,9.50568 -9.415862,9.50568c-5.044747,0 -7.963814,-2.604706 -9.460771,-5.763286l5.134564,-3.098702c0.987992,1.75144 1.886166,3.233428 4.056755,3.233428c2.065801,0 3.383124,-0.808357 3.383124,-3.966937l0,-21.421461l6.302191,0l0,21.511278zm14.909696,9.50568c-5.853104,0 -9.640406,-2.784341 -11.481664,-6.436917l5.134564,-2.963976c1.347262,2.200527 3.113671,3.832211 6.212373,3.832211c2.604706,0 4.281298,-1.302353 4.281298,-3.113671c0,-2.155619 -1.706531,-2.919067 -4.595659,-4.191481l-1.571805,-0.673631c-4.550751,-1.931075 -7.559635,-4.371116 -7.559635,-9.50568c0,-4.730386 3.607667,-8.323083 9.221258,-8.323083c4.011846,0 6.886004,1.39217 8.951805,5.044747l-4.91002,3.143611c-1.077809,-1.931075 -2.245436,-2.694523 -4.056755,-2.694523c-1.841258,0 -3.008884,1.167627 -3.008884,2.694523c0,1.886166 1.167627,2.649615 3.87712,3.832211l1.571805,0.673631c5.359108,2.290345 8.367992,4.640568 8.367992,9.909858c0,5.658499 -4.460933,8.772171 -10.433793,8.772171z"/>
  <g id="svg_5"/>
 </g>
</svg>